<?xml version="1.0" encoding="UTF-8" standalone="no"?>
<!DOCTYPE svg PUBLIC "-//W3C//DTD SVG 1.1//EN" "http://www.w3.org/Graphics/SVG/1.1/DTD/svg11.dtd">
<svg version="1.1" xmlns="http://www.w3.org/2000/svg" xmlns:xlink="http://www.w3.org/1999/xlink" preserveAspectRatio="xMidYMid meet" viewBox="0 0 2560 1440" width="2560" height="1440"><defs><path d="M2919.86 106.83C2919.86 341.39 2729.43 531.83 2494.86 531.83C2260.3 531.83 2069.86 341.39 2069.86 106.83C2069.86 -127.74 2260.3 -318.17 2494.86 -318.17C2729.43 -318.17 2919.86 -127.74 2919.86 106.83Z" id="bKMKAsaMc"></path><path d="M-226.17 -29.31L114.79 -160.19L427.63 654.79L86.68 785.67L-226.17 -29.31Z" id="ade8zRs1c"></path><path d="M585.23 1050.66L588.27 1304.78L383.1 1204.71L177.95 1104.65L380.05 950.59L582.18 796.54L585.23 1050.66Z" id="gb81XwlCH"></path><path d="M2090.32 969.56L2328.38 921.23L2451.77 1130.49L2289.95 1308.15L2066.57 1208.69L2090.32 969.56Z" id="l3LYWeHLA7"></path></defs><g><g><g><use xlink:href="#bKMKAsaMc" opacity="1" fill="#d03f41" fill-opacity="1"></use><g><use xlink:href="#bKMKAsaMc" opacity="1" fill-opacity="0" stroke="#6fa907" stroke-width="0" stroke-opacity="1"></use></g></g><g><use xlink:href="#ade8zRs1c" opacity="1" fill="#d03f41" fill-opacity="1"></use></g><g><use xlink:href="#gb81XwlCH" opacity="1" fill="#d03f41" fill-opacity="1"></use></g><g><use xlink:href="#l3LYWeHLA7" opacity="1" fill="#d03f41" fill-opacity="1"></use></g></g></g></svg>