<?xml version="1.0" encoding="UTF-8" standalone="no"?>
<!DOCTYPE svg PUBLIC "-//W3C//DTD SVG 1.1//EN" "http://www.w3.org/Graphics/SVG/1.1/DTD/svg11.dtd">
<svg version="1.1" xmlns="http://www.w3.org/2000/svg" xmlns:xlink="http://www.w3.org/1999/xlink" preserveAspectRatio="xMidYMid meet" viewBox="0 0 1440 2560" width="1440" height="2560"><defs><path d="M1632.95 228.94C1632.95 420.11 1479.71 575.31 1290.96 575.31C1102.21 575.31 948.97 420.11 948.97 228.94C948.97 37.77 1102.21 -117.44 1290.96 -117.44C1479.71 -117.44 1632.95 37.77 1632.95 228.94Z" id="bfqyG4ZMB"></path><path d="M1021.77 1682.64L1140.98 1763.61L1098.44 1832.19L979.22 1751.22L903.25 1873.68L836.49 1828.33L912.46 1705.87L793.24 1624.9L835.79 1556.32L955.01 1637.29L1030.98 1514.83L1097.74 1560.17L1021.77 1682.64Z" id="aur5H8xlo"></path><path d="M1487.1 1106.99L1372.84 1477.65L1108.89 1193.07L844.95 908.5L1223.14 822.39L1601.35 736.31L1487.1 1106.99Z" id="h2nP82NpC"></path><path d="M-167.31 -14.21L235.83 -99.9L395.36 650.62L-7.78 736.31L-167.31 -14.21Z" id="br9KkeNLK"></path><path d="M192.31 1064.27L501.68 1013.76L645.65 1292.22L425.24 1514.83L145.06 1373.95L192.31 1064.27Z" id="dc8QkZOg7"></path><path d="M688.11 2123.45L688.66 2123.77L689.17 2124.1L689.66 2124.45L690.12 2124.82L690.56 2125.2L690.97 2125.61L691.35 2126.03L691.71 2126.47L692.05 2126.92L692.37 2127.39L692.66 2127.88L692.93 2128.38L693.18 2128.9L693.41 2129.43L693.62 2129.98L693.82 2130.54L693.99 2131.11L694.15 2131.7L694.29 2132.3L694.42 2132.91L694.53 2133.54L694.63 2134.18L694.71 2134.83L694.78 2135.49L694.84 2136.16L694.88 2136.85L694.92 2137.54L694.94 2138.25L694.96 2138.96L694.96 2139.68L694.96 2140.42L694.95 2141.16L694.94 2141.91L694.91 2142.67L694.88 2143.43L694.85 2144.2L694.81 2144.99L694.77 2145.77L689.31 2194.12L692.88 2196.97L700.62 2203.61L708.07 2210.48L715.22 2217.57L722.06 2224.87L722.62 2225.5L775.62 2221.85L776.48 2221.83L777.33 2221.82L778.17 2221.81L779.01 2221.81L779.84 2221.81L780.65 2221.81L781.46 2221.82L782.26 2221.84L783.05 2221.87L783.82 2221.9L784.59 2221.95L785.35 2222L786.09 2222.06L786.82 2222.13L787.54 2222.21L788.25 2222.31L788.94 2222.41L789.62 2222.53L790.29 2222.67L790.94 2222.81L791.57 2222.98L792.19 2223.15L792.8 2223.35L793.39 2223.56L793.96 2223.78L794.52 2224.03L795.06 2224.29L795.58 2224.57L796.08 2224.88L796.57 2225.2L797.04 2225.54L797.48 2225.91L797.91 2226.29L798.32 2226.7L798.71 2227.14L799.08 2227.6L799.42 2228.08L799.75 2228.58L800.05 2229.12L800.34 2229.68L839.58 2312.78L839.83 2313.36L840.05 2313.92L840.23 2314.49L840.37 2315.05L840.48 2315.61L840.56 2316.16L840.61 2316.71L840.62 2317.26L840.6 2317.8L840.55 2318.34L840.47 2318.87L840.36 2319.4L840.22 2319.93L840.05 2320.45L839.85 2320.97L839.63 2321.49L839.38 2322L839.11 2322.51L838.81 2323.01L838.48 2323.51L838.14 2324.01L837.77 2324.5L837.37 2324.99L836.96 2325.47L836.52 2325.95L836.07 2326.43L835.59 2326.9L835.1 2327.37L834.59 2327.83L834.06 2328.29L833.51 2328.75L832.95 2329.2L832.37 2329.64L831.78 2330.09L831.17 2330.53L830.55 2330.96L829.92 2331.39L829.27 2331.82L828.61 2332.24L827.94 2332.66L786.36 2360.31L786.52 2361.37L787.48 2370.61L788.05 2379.88L788.23 2389.16L788.01 2398.44L787.73 2402.56L831.2 2434.7L831.9 2435.19L832.59 2435.69L833.26 2436.18L833.93 2436.68L834.58 2437.19L835.22 2437.69L835.84 2438.2L836.45 2438.71L837.05 2439.22L837.63 2439.74L838.19 2440.26L838.73 2440.78L839.26 2441.3L839.76 2441.82L840.25 2442.35L840.72 2442.88L841.17 2443.41L841.59 2443.94L842 2444.47L842.38 2445.01L842.74 2445.54L843.07 2446.08L843.38 2446.62L843.66 2447.16L843.92 2447.7L844.15 2448.24L844.35 2448.79L844.52 2449.33L844.67 2449.88L844.79 2450.42L844.87 2450.97L844.93 2451.51L844.95 2452.06L844.94 2452.61L844.9 2453.15L844.83 2453.7L844.72 2454.25L844.57 2454.79L844.39 2455.34L844.18 2455.89L810.24 2535.09L809.99 2535.62L809.72 2536.12L809.43 2536.6L809.11 2537.04L808.77 2537.46L808.41 2537.86L808.02 2538.22L807.62 2538.57L807.19 2538.88L806.75 2539.18L806.28 2539.45L805.8 2539.7L805.29 2539.93L804.77 2540.13L804.22 2540.32L803.66 2540.49L803.09 2540.64L802.49 2540.76L801.88 2540.88L801.25 2540.97L800.61 2541.05L799.95 2541.11L799.27 2541.16L798.59 2541.19L797.88 2541.21L797.17 2541.22L796.44 2541.21L795.7 2541.19L794.94 2541.16L794.17 2541.12L793.4 2541.07L792.61 2541.02L791.81 2540.95L791 2540.87L790.18 2540.79L789.35 2540.7L788.51 2540.61L787.66 2540.51L786.81 2540.41L785.95 2540.3L732.69 2530.99L729.9 2534.04L723.33 2540.6L716.49 2546.86L709.38 2552.84L702.02 2558.52L701.23 2559.07L709.87 2608.16L710.03 2608.93L710.18 2609.7L710.31 2610.46L710.44 2611.22L710.55 2611.97L710.65 2612.71L710.74 2613.44L710.82 2614.17L710.88 2614.89L710.93 2615.6L710.96 2616.3L710.98 2616.99L710.98 2617.67L710.96 2618.34L710.93 2619L710.89 2619.65L710.82 2620.28L710.74 2620.9L710.64 2621.51L710.52 2622.1L710.38 2622.68L710.22 2623.24L710.04 2623.79L709.84 2624.33L709.62 2624.84L709.38 2625.34L709.12 2625.82L708.83 2626.29L708.52 2626.74L708.19 2627.16L707.84 2627.57L707.46 2627.96L707.05 2628.33L706.63 2628.67L706.17 2629L705.69 2629.3L705.19 2629.58L704.65 2629.84L704.09 2630.08L703.5 2630.29L616.26 2659.19L615.66 2659.37L615.06 2659.52L614.47 2659.63L613.88 2659.71L613.3 2659.76L612.72 2659.78L612.14 2659.77L611.56 2659.72L610.99 2659.65L610.42 2659.55L609.85 2659.42L609.28 2659.26L608.72 2659.08L608.16 2658.87L607.59 2658.64L607.04 2658.38L606.48 2658.1L605.92 2657.79L605.36 2657.46L604.81 2657.12L604.25 2656.75L603.7 2656.36L603.14 2655.95L602.59 2655.52L602.03 2655.07L601.47 2654.61L600.92 2654.13L600.36 2653.63L599.8 2653.12L599.24 2652.59L598.68 2652.05L598.12 2651.5L597.56 2650.94L596.99 2650.36L596.42 2649.77L595.85 2649.17L595.28 2648.56L594.7 2647.95L594.13 2647.32L593.54 2646.69L559.76 2605.93L558.73 2605.98L548.72 2606.06L538.66 2605.77L528.55 2605.12L518.4 2604.09L513.88 2603.47L482.63 2640.77L482.09 2641.34L481.55 2641.91L481.01 2642.46L480.48 2643.01L479.95 2643.55L479.41 2644.08L478.88 2644.6L478.35 2645.11L477.83 2645.6L477.3 2646.08L476.77 2646.55L476.25 2647.01L475.72 2647.44L475.19 2647.87L474.66 2648.27L474.14 2648.66L473.61 2649.03L473.08 2649.38L472.55 2649.71L472.01 2650.03L471.48 2650.32L470.94 2650.59L470.4 2650.83L469.86 2651.06L469.31 2651.26L468.77 2651.43L468.21 2651.58L467.66 2651.7L467.1 2651.8L466.54 2651.87L465.97 2651.91L465.4 2651.92L464.83 2651.9L464.25 2651.85L463.66 2651.77L463.07 2651.66L462.48 2651.52L461.87 2651.34L461.27 2651.13L460.65 2650.88L371.21 2612.55L370.61 2612.27L370.03 2611.98L369.48 2611.66L368.95 2611.33L368.45 2610.97L367.98 2610.59L367.52 2610.2L367.09 2609.79L366.69 2609.36L366.31 2608.91L365.95 2608.45L365.61 2607.97L365.29 2607.47L364.99 2606.96L364.72 2606.43L364.46 2605.89L364.23 2605.33L364.02 2604.76L363.82 2604.18L363.64 2603.58L363.48 2602.97L363.34 2602.35L363.22 2601.72L363.11 2601.08L363.02 2600.42L362.95 2599.76L362.89 2599.09L362.85 2598.41L362.82 2597.71L362.81 2597.02L362.81 2596.31L362.82 2595.59L362.85 2594.87L362.89 2594.14L362.94 2593.41L363.01 2592.67L363.08 2591.92L363.17 2591.17L363.27 2590.42L363.38 2589.66L368.84 2541.31L365.27 2538.47L357.53 2531.82L350.08 2524.95L342.94 2517.86L336.09 2510.57L335.28 2509.64L282.67 2513.27L281.84 2513.35L281.01 2513.42L280.19 2513.48L279.38 2513.53L278.57 2513.57L277.77 2513.59L276.98 2513.61L276.19 2513.62L275.41 2513.61L274.64 2513.59L273.88 2513.56L273.12 2513.51L272.38 2513.45L271.65 2513.38L270.93 2513.3L270.22 2513.19L269.52 2513.08L268.84 2512.95L268.17 2512.8L267.51 2512.64L266.86 2512.46L266.23 2512.26L265.62 2512.05L265.02 2511.82L264.44 2511.57L263.87 2511.3L263.32 2511.02L262.79 2510.71L262.27 2510.39L261.78 2510.04L261.3 2509.68L260.84 2509.3L260.41 2508.89L259.99 2508.47L259.59 2508.02L259.22 2507.55L258.87 2507.06L258.54 2506.54L258.23 2506L257.95 2505.44L218.71 2422.33L218.46 2421.76L218.24 2421.2L218.07 2420.64L217.93 2420.09L217.82 2419.55L217.75 2419.01L217.71 2418.48L217.71 2417.95L217.74 2417.43L217.8 2416.91L217.89 2416.39L218.01 2415.88L218.16 2415.38L218.34 2414.88L218.54 2414.38L218.78 2413.89L219.04 2413.4L219.32 2412.91L219.63 2412.42L219.96 2411.94L220.31 2411.46L220.69 2410.98L221.09 2410.51L221.51 2410.03L221.95 2409.56L222.4 2409.09L222.88 2408.61L223.37 2408.14L223.88 2407.67L224.4 2407.2L224.94 2406.73L225.5 2406.26L226.07 2405.79L226.64 2405.32L227.24 2404.85L227.84 2404.37L228.45 2403.9L229.07 2403.42L229.71 2402.94L230.34 2402.46L271.77 2374.92L271.64 2374.07L270.67 2364.82L270.1 2355.55L269.92 2346.28L270.14 2336.99L270.42 2332.87L226.95 2300.73L226.28 2300.18L225.61 2299.63L224.96 2299.09L224.31 2298.55L223.68 2298.01L223.05 2297.47L222.44 2296.93L221.84 2296.4L221.25 2295.87L220.68 2295.34L220.12 2294.81L219.58 2294.29L219.06 2293.76L218.55 2293.24L218.06 2292.71L217.59 2292.19L217.14 2291.67L216.71 2291.15L216.3 2290.63L215.91 2290.11L215.55 2289.59L215.2 2289.07L214.89 2288.55L214.6 2288.03L214.33 2287.51L214.09 2286.99L213.88 2286.47L213.7 2285.94L213.54 2285.42L213.42 2284.89L213.32 2284.37L213.26 2283.84L213.23 2283.31L213.23 2282.78L213.27 2282.25L213.33 2281.71L213.44 2281.17L213.58 2280.63L213.76 2280.09L213.97 2279.55L247.92 2200.35L248.16 2199.81L248.44 2199.31L248.73 2198.82L249.05 2198.37L249.4 2197.94L249.77 2197.53L250.16 2197.15L250.57 2196.79L251 2196.45L251.46 2196.14L251.93 2195.84L252.43 2195.57L252.94 2195.33L253.47 2195.1L254.02 2194.89L254.59 2194.7L255.18 2194.54L255.78 2194.39L256.4 2194.26L257.04 2194.15L257.69 2194.05L258.35 2193.98L259.03 2193.92L259.72 2193.88L260.43 2193.85L261.15 2193.84L261.87 2193.85L262.62 2193.87L263.37 2193.9L264.13 2193.95L264.9 2194.02L265.68 2194.09L266.47 2194.18L267.27 2194.28L268.08 2194.4L268.89 2194.52L269.71 2194.66L270.54 2194.81L271.37 2194.97L272.21 2195.13L325.46 2204.44L328.25 2201.4L334.82 2194.84L341.66 2188.57L348.77 2182.59L356.13 2176.92L356.92 2176.36L348.28 2127.27L348.19 2126.48L348.1 2125.69L348.02 2124.91L347.94 2124.14L347.87 2123.38L347.8 2122.62L347.74 2121.88L347.69 2121.14L347.65 2120.42L347.62 2119.7L347.6 2119L347.59 2118.31L347.59 2117.62L347.6 2116.96L347.63 2116.3L347.67 2115.66L347.72 2115.02L347.79 2114.41L347.88 2113.81L347.98 2113.22L348.11 2112.64L348.24 2112.09L348.4 2111.54L348.58 2111.02L348.78 2110.51L348.99 2110.02L349.23 2109.54L349.5 2109.09L349.78 2108.65L350.09 2108.23L350.42 2107.83L350.78 2107.44L351.17 2107.08L351.58 2106.74L352.02 2106.42L352.48 2106.12L352.98 2105.84L353.51 2105.59L354.06 2105.35L354.65 2105.14L441.89 2076.25L442.49 2076.06L443.09 2075.91L443.69 2075.8L444.29 2075.71L444.89 2075.66L445.49 2075.64L446.08 2075.64L446.68 2075.68L447.27 2075.75L447.86 2075.84L448.46 2075.96L449.04 2076.11L449.63 2076.29L450.22 2076.49L450.8 2076.71L451.38 2076.97L451.97 2077.24L452.54 2077.54L453.12 2077.86L453.69 2078.2L454.27 2078.57L454.84 2078.95L455.4 2079.36L455.97 2079.78L456.53 2080.23L457.09 2080.69L457.65 2081.17L458.2 2081.67L458.75 2082.18L459.3 2082.71L459.85 2083.25L460.39 2083.81L460.93 2084.39L461.46 2084.97L462 2085.57L462.53 2086.19L463.05 2086.81L463.57 2087.44L464.09 2088.09L464.61 2088.74L498.4 2129.5L499.42 2129.45L509.43 2129.38L519.49 2129.67L529.6 2130.32L539.75 2131.34L544.28 2131.97L575.52 2094.66L575.99 2094.06L576.47 2093.47L576.96 2092.89L577.44 2092.32L577.93 2091.76L578.43 2091.22L578.93 2090.69L579.43 2090.17L579.94 2089.67L580.45 2089.18L580.97 2088.7L581.49 2088.25L582.01 2087.81L582.54 2087.39L583.07 2086.98L583.6 2086.6L584.14 2086.23L584.69 2085.88L585.23 2085.56L585.78 2085.25L586.34 2084.97L586.89 2084.71L587.45 2084.47L588.02 2084.26L588.59 2084.07L589.16 2083.91L589.73 2083.77L590.31 2083.65L590.89 2083.57L591.48 2083.51L592.07 2083.48L592.66 2083.47L593.25 2083.5L593.85 2083.56L594.45 2083.64L595.05 2083.76L595.66 2083.91L596.27 2084.09L596.88 2084.31L597.5 2084.55L686.94 2122.88L687.54 2123.16L688.11 2123.45ZM567.71 2248.02L562.25 2246.23L556.77 2244.66L551.28 2243.3L545.79 2242.14L540.3 2241.19L534.83 2240.44L529.36 2239.89L523.92 2239.54L518.5 2239.38L513.11 2239.42L507.76 2239.65L502.45 2240.08L497.2 2240.69L491.99 2241.49L486.85 2242.47L481.78 2243.64L476.77 2244.99L471.85 2246.52L467.01 2248.23L462.26 2250.11L457.6 2252.16L453.04 2254.39L448.6 2256.79L444.26 2259.35L440.04 2262.08L435.95 2264.98L431.99 2268.04L428.16 2271.25L424.48 2274.63L420.94 2278.16L417.55 2281.85L414.33 2285.69L411.27 2289.68L408.38 2293.81L405.67 2298.1L403.14 2302.53L400.79 2307.1L398.64 2311.82L396.71 2316.62L395.02 2321.48L393.55 2326.36L392.32 2331.28L391.32 2336.23L390.54 2341.2L389.98 2346.18L389.65 2351.17L389.53 2356.17L389.63 2361.17L389.94 2366.16L390.45 2371.14L391.18 2376.1L392.11 2381.03L393.24 2385.94L394.58 2390.82L396.1 2395.65L397.83 2400.44L399.74 2405.18L401.84 2409.86L404.13 2414.48L406.61 2419.03L409.26 2423.52L412.1 2427.92L415.1 2432.24L418.29 2436.47L421.64 2440.6L425.16 2444.64L428.85 2448.56L432.7 2452.38L436.71 2456.08L440.87 2459.66L445.2 2463.11L449.67 2466.43L454.3 2469.6L459.07 2472.64L463.98 2475.52L469.04 2478.25L474.24 2480.82L479.58 2483.22L484.99 2485.42L490.44 2487.42L495.9 2489.2L501.38 2490.77L506.87 2492.14L512.36 2493.29L517.85 2494.25L523.33 2495L528.79 2495.55L534.24 2495.9L539.66 2496.05L545.04 2496.01L550.39 2495.78L555.7 2495.36L560.96 2494.74L566.16 2493.95L571.3 2492.96L576.38 2491.79L581.38 2490.44L586.3 2488.91L591.15 2487.21L595.9 2485.33L600.55 2483.27L605.11 2481.04L609.56 2478.65L613.89 2476.08L618.11 2473.35L622.2 2470.46L626.16 2467.4L629.99 2464.18L633.68 2460.81L637.21 2457.27L640.6 2453.59L643.82 2449.75L646.88 2445.76L649.77 2441.62L652.49 2437.33L655.02 2432.9L657.36 2428.33L659.51 2423.62L661.44 2418.81L663.14 2413.96L664.6 2409.07L665.83 2404.15L666.83 2399.2L667.61 2394.24L668.17 2389.25L668.5 2384.26L668.62 2379.26L668.53 2374.27L668.22 2369.28L667.7 2364.3L666.97 2359.34L666.04 2354.4L664.91 2349.49L663.58 2344.62L662.05 2339.78L660.32 2334.99L658.41 2330.26L656.31 2325.57L654.02 2320.95L651.54 2316.4L648.89 2311.92L646.06 2307.52L643.05 2303.2L639.87 2298.97L636.51 2294.83L632.99 2290.8L629.31 2286.87L625.46 2283.05L621.45 2279.35L617.28 2275.77L612.96 2272.32L608.48 2269.01L603.86 2265.83L599.08 2262.8L594.17 2259.91L589.11 2257.19L583.91 2254.62L578.58 2252.22L573.16 2250.01L567.71 2248.02Z" id="a7UUDyeZpu"></path></defs><g><g><g><use xlink:href="#bfqyG4ZMB" opacity="1" fill="#d03f41" fill-opacity="1"></use></g><g><use xlink:href="#aur5H8xlo" opacity="1" fill="#d03f41" fill-opacity="1"></use></g><g><use xlink:href="#h2nP82NpC" opacity="1" fill="#d03f41" fill-opacity="1"></use></g><g><use xlink:href="#br9KkeNLK" opacity="1" fill="#d03f41" fill-opacity="1"></use></g><g><use xlink:href="#dc8QkZOg7" opacity="1" fill="#d03f41" fill-opacity="1"></use></g><g><use xlink:href="#a7UUDyeZpu" opacity="1" fill="#d03f41" fill-opacity="1"></use></g></g></g></svg>