<?xml version="1.0" encoding="UTF-8" standalone="no"?>
<!DOCTYPE svg PUBLIC "-//W3C//DTD SVG 1.1//EN" "http://www.w3.org/Graphics/SVG/1.1/DTD/svg11.dtd">
<svg version="1.1" xmlns="http://www.w3.org/2000/svg" xmlns:xlink="http://www.w3.org/1999/xlink" preserveAspectRatio="xMidYMid meet" viewBox="0 0 2560 1440" width="2560" height="1440"><defs><path d="M2729.07 202.63C2729.07 393.8 2575.83 549.01 2387.08 549.01C2198.33 549.01 2045.09 393.8 2045.09 202.63C2045.09 11.46 2198.33 -143.74 2387.08 -143.74C2575.83 -143.74 2729.07 11.46 2729.07 202.63Z" id="g26xNZRScj"></path><path d="M2224.7 1138.06L2343.92 1219.04L2301.37 1287.62L2182.16 1206.64L2106.18 1329.1L2039.42 1283.76L2115.4 1161.3L1996.18 1080.32L2038.73 1011.74L2157.94 1092.72L2233.92 970.25L2300.68 1015.6L2224.7 1138.06Z" id="a1uTaYHjq0"></path><path d="M1618.64 720.01L1504.38 1090.67L1240.43 806.09L976.49 521.52L1354.68 435.41L1732.89 349.33L1618.64 720.01Z" id="a7y94XaF4"></path><path d="M-167.31 -58.05L235.83 -143.74L395.36 606.77L-7.78 692.46L-167.31 -58.05Z" id="dyJHl3hah"></path><path d="M161.27 915.31L470.64 864.79L614.61 1143.26L394.2 1365.86L114.02 1224.98L161.27 915.31Z" id="b2uzo7YE9x"></path><path d="M1159.28 1224.59L1159.61 1224.78L1159.92 1224.98L1160.21 1225.18L1160.49 1225.4L1160.76 1225.63L1161.01 1225.87L1161.24 1226.12L1161.46 1226.38L1161.66 1226.65L1161.86 1226.92L1162.03 1227.21L1162.2 1227.5L1162.36 1227.81L1162.5 1228.12L1162.63 1228.44L1162.75 1228.77L1162.86 1229.11L1162.96 1229.45L1163.05 1229.8L1163.13 1230.16L1163.2 1230.53L1163.26 1230.9L1163.32 1231.28L1163.36 1231.67L1163.4 1232.06L1163.44 1232.46L1163.46 1232.86L1163.48 1233.28L1163.5 1233.69L1163.51 1234.11L1163.51 1234.54L1163.51 1234.97L1163.51 1235.41L1163.5 1235.85L1163.49 1236.3L1163.47 1236.75L1163.46 1237.21L1163.44 1237.67L1160.55 1265.83L1162.71 1267.52L1167.39 1271.45L1171.89 1275.52L1176.23 1279.71L1180.38 1284.02L1180.71 1284.39L1212.39 1282.68L1212.91 1282.67L1213.42 1282.67L1213.92 1282.67L1214.42 1282.68L1214.91 1282.69L1215.4 1282.69L1215.89 1282.71L1216.36 1282.73L1216.84 1282.75L1217.3 1282.77L1217.76 1282.8L1218.21 1282.84L1218.66 1282.88L1219.1 1282.93L1219.53 1282.98L1219.95 1283.04L1220.37 1283.11L1220.77 1283.18L1221.17 1283.27L1221.56 1283.36L1221.94 1283.46L1222.32 1283.57L1222.68 1283.68L1223.03 1283.81L1223.38 1283.95L1223.71 1284.09L1224.04 1284.25L1224.35 1284.42L1224.66 1284.6L1224.95 1284.79L1225.23 1285L1225.5 1285.21L1225.76 1285.44L1226.01 1285.69L1226.25 1285.94L1226.47 1286.21L1226.68 1286.5L1226.88 1286.79L1227.07 1287.11L1227.24 1287.44L1251.36 1336.23L1251.51 1336.56L1251.65 1336.89L1251.76 1337.23L1251.85 1337.55L1251.92 1337.88L1251.97 1338.2L1252 1338.52L1252.01 1338.84L1252.01 1339.16L1251.98 1339.47L1251.94 1339.78L1251.87 1340.09L1251.8 1340.4L1251.7 1340.7L1251.59 1341L1251.46 1341.3L1251.31 1341.6L1251.15 1341.89L1250.98 1342.19L1250.79 1342.47L1250.58 1342.76L1250.37 1343.05L1250.13 1343.33L1249.89 1343.61L1249.63 1343.88L1249.37 1344.16L1249.09 1344.43L1248.79 1344.7L1248.49 1344.96L1248.18 1345.23L1247.85 1345.49L1247.52 1345.75L1247.18 1346.01L1246.83 1346.26L1246.47 1346.51L1246.1 1346.76L1245.72 1347.01L1245.34 1347.25L1244.95 1347.49L1244.55 1347.73L1219.89 1363.54L1219.99 1364.16L1220.64 1369.56L1221.06 1374.97L1221.24 1380.38L1221.18 1385.8L1221.04 1388.2L1247.3 1407.29L1247.72 1407.58L1248.13 1407.87L1248.54 1408.17L1248.94 1408.46L1249.34 1408.76L1249.72 1409.06L1250.1 1409.36L1250.47 1409.67L1250.83 1409.97L1251.18 1410.28L1251.52 1410.58L1251.85 1410.89L1252.16 1411.2L1252.47 1411.51L1252.77 1411.82L1253.05 1412.13L1253.32 1412.44L1253.58 1412.76L1253.83 1413.07L1254.06 1413.39L1254.28 1413.7L1254.48 1414.02L1254.67 1414.34L1254.84 1414.65L1255 1414.97L1255.14 1415.29L1255.27 1415.61L1255.38 1415.93L1255.47 1416.24L1255.54 1416.56L1255.6 1416.88L1255.64 1417.2L1255.65 1417.52L1255.65 1417.84L1255.63 1418.16L1255.59 1418.48L1255.53 1418.8L1255.45 1419.11L1255.35 1419.43L1255.22 1419.75L1235.53 1465.69L1235.39 1466L1235.23 1466.29L1235.06 1466.56L1234.87 1466.82L1234.67 1467.06L1234.46 1467.29L1234.23 1467.5L1233.99 1467.7L1233.74 1467.88L1233.48 1468.05L1233.2 1468.21L1232.91 1468.35L1232.61 1468.48L1232.3 1468.59L1231.98 1468.7L1231.64 1468.79L1231.3 1468.87L1230.94 1468.94L1230.58 1469L1230.2 1469.05L1229.82 1469.09L1229.43 1469.12L1229.02 1469.15L1228.61 1469.16L1228.19 1469.17L1227.76 1469.16L1227.33 1469.16L1226.88 1469.14L1226.43 1469.12L1225.97 1469.09L1225.51 1469.05L1225.03 1469.01L1224.55 1468.97L1224.07 1468.92L1223.58 1468.86L1223.08 1468.81L1222.58 1468.74L1222.07 1468.68L1221.56 1468.61L1221.04 1468.54L1189.11 1462.7L1187.47 1464.45L1183.59 1468.23L1179.54 1471.83L1175.34 1475.26L1170.98 1478.52L1170.51 1478.83L1176.06 1507.54L1176.16 1507.99L1176.26 1508.44L1176.35 1508.89L1176.43 1509.33L1176.5 1509.77L1176.57 1510.2L1176.62 1510.63L1176.68 1511.06L1176.72 1511.48L1176.75 1511.89L1176.78 1512.3L1176.79 1512.7L1176.8 1513.1L1176.79 1513.49L1176.78 1513.87L1176.76 1514.25L1176.72 1514.62L1176.68 1514.98L1176.62 1515.33L1176.56 1515.68L1176.48 1516.02L1176.39 1516.34L1176.29 1516.66L1176.17 1516.97L1176.04 1517.27L1175.9 1517.56L1175.75 1517.84L1175.58 1518.11L1175.4 1518.37L1175.21 1518.62L1175 1518.85L1174.77 1519.07L1174.53 1519.29L1174.28 1519.48L1174.01 1519.67L1173.73 1519.84L1173.43 1520L1173.11 1520.15L1172.78 1520.28L1172.43 1520.4L1120.46 1536.58L1120.1 1536.69L1119.75 1536.77L1119.39 1536.83L1119.04 1536.87L1118.69 1536.9L1118.35 1536.9L1118 1536.89L1117.65 1536.86L1117.31 1536.81L1116.97 1536.75L1116.63 1536.67L1116.29 1536.57L1115.95 1536.46L1115.61 1536.34L1115.27 1536.2L1114.94 1536.04L1114.6 1535.87L1114.26 1535.69L1113.93 1535.49L1113.59 1535.29L1113.26 1535.07L1112.92 1534.83L1112.59 1534.59L1112.25 1534.34L1111.92 1534.07L1111.58 1533.8L1111.24 1533.51L1110.91 1533.22L1110.57 1532.92L1110.23 1532.61L1109.89 1532.29L1109.55 1531.96L1109.21 1531.63L1108.86 1531.28L1108.52 1530.94L1108.17 1530.58L1107.83 1530.22L1107.48 1529.86L1107.13 1529.49L1106.77 1529.12L1086.25 1505.08L1085.63 1505.1L1079.65 1505.06L1073.62 1504.82L1067.57 1504.36L1061.49 1503.68L1058.78 1503.28L1040.38 1524.8L1040.06 1525.13L1039.74 1525.46L1039.43 1525.78L1039.11 1526.09L1038.8 1526.4L1038.48 1526.71L1038.17 1527.01L1037.86 1527.3L1037.54 1527.58L1037.23 1527.86L1036.92 1528.13L1036.61 1528.39L1036.3 1528.64L1035.99 1528.88L1035.67 1529.12L1035.36 1529.34L1035.05 1529.55L1034.73 1529.75L1034.42 1529.94L1034.1 1530.12L1033.78 1530.28L1033.46 1530.44L1033.14 1530.58L1032.82 1530.7L1032.5 1530.82L1032.17 1530.91L1031.84 1531L1031.51 1531.06L1031.18 1531.12L1030.84 1531.15L1030.5 1531.17L1030.16 1531.17L1029.82 1531.16L1029.47 1531.12L1029.12 1531.07L1028.77 1531L1028.41 1530.92L1028.05 1530.81L1027.68 1530.68L1027.31 1530.53L973.51 1507.47L973.15 1507.31L972.8 1507.13L972.47 1506.94L972.15 1506.74L971.85 1506.53L971.56 1506.31L971.29 1506.07L971.03 1505.83L970.78 1505.58L970.55 1505.31L970.33 1505.04L970.12 1504.75L969.93 1504.46L969.75 1504.16L969.58 1503.85L969.42 1503.53L969.28 1503.21L969.15 1502.87L969.02 1502.53L968.91 1502.18L968.81 1501.83L968.72 1501.46L968.64 1501.09L968.58 1500.72L968.52 1500.34L968.47 1499.95L968.43 1499.55L968.4 1499.16L968.37 1498.75L968.36 1498.34L968.36 1497.93L968.36 1497.51L968.37 1497.09L968.39 1496.67L968.42 1496.24L968.45 1495.81L968.49 1495.38L968.53 1494.94L968.59 1494.5L968.65 1494.06L971.54 1465.89L969.38 1464.21L964.7 1460.27L960.19 1456.2L955.86 1452.01L951.71 1447.7L951.22 1447.16L919.77 1448.87L919.28 1448.9L918.78 1448.94L918.29 1448.97L917.81 1448.99L917.32 1449.01L916.85 1449.02L916.37 1449.02L915.9 1449.02L915.43 1449.01L914.97 1448.99L914.52 1448.96L914.07 1448.93L913.62 1448.89L913.18 1448.84L912.75 1448.79L912.33 1448.72L911.91 1448.65L911.5 1448.57L911.09 1448.48L910.7 1448.38L910.31 1448.27L909.93 1448.15L909.56 1448.02L909.2 1447.88L908.85 1447.73L908.51 1447.57L908.18 1447.4L907.86 1447.22L907.55 1447.02L907.25 1446.82L906.96 1446.6L906.69 1446.38L906.42 1446.14L906.17 1445.89L905.93 1445.62L905.7 1445.34L905.49 1445.05L905.29 1444.75L905.1 1444.43L904.93 1444.1L880.81 1395.32L880.65 1394.98L880.52 1394.65L880.41 1394.32L880.32 1394L880.25 1393.68L880.21 1393.37L880.18 1393.06L880.17 1392.75L880.19 1392.44L880.22 1392.14L880.27 1391.84L880.34 1391.55L880.42 1391.25L880.53 1390.96L880.65 1390.67L880.78 1390.39L880.93 1390.1L881.1 1389.82L881.28 1389.54L881.47 1389.26L881.68 1388.98L881.9 1388.71L882.14 1388.43L882.38 1388.16L882.64 1387.89L882.91 1387.61L883.19 1387.34L883.48 1387.07L883.79 1386.8L884.1 1386.53L884.41 1386.26L884.74 1385.99L885.08 1385.72L885.42 1385.45L885.77 1385.18L886.13 1384.91L886.49 1384.64L886.86 1384.36L887.23 1384.09L887.61 1383.81L912.18 1368.07L912.09 1367.57L911.44 1362.17L911.03 1356.75L910.85 1351.34L910.91 1345.93L911.04 1343.53L884.79 1324.44L884.38 1324.11L883.98 1323.78L883.59 1323.46L883.2 1323.14L882.81 1322.82L882.43 1322.5L882.06 1322.18L881.7 1321.87L881.34 1321.55L881 1321.24L880.66 1320.93L880.33 1320.62L880.01 1320.31L879.71 1320L879.41 1319.69L879.12 1319.38L878.85 1319.07L878.59 1318.77L878.34 1318.46L878.1 1318.15L877.88 1317.85L877.67 1317.54L877.48 1317.24L877.3 1316.93L877.14 1316.62L876.99 1316.32L876.86 1316.01L876.75 1315.71L876.65 1315.4L876.57 1315.09L876.51 1314.78L876.47 1314.47L876.45 1314.17L876.44 1313.86L876.46 1313.55L876.5 1313.23L876.56 1312.92L876.64 1312.61L876.74 1312.29L876.86 1311.98L896.55 1266.03L896.7 1265.72L896.86 1265.43L897.03 1265.15L897.22 1264.89L897.42 1264.64L897.64 1264.4L897.87 1264.18L898.11 1263.98L898.37 1263.78L898.64 1263.6L898.92 1263.44L899.21 1263.28L899.52 1263.14L899.84 1263.01L900.16 1262.9L900.5 1262.79L900.85 1262.7L901.21 1262.62L901.58 1262.55L901.96 1262.49L902.35 1262.44L902.75 1262.4L903.15 1262.37L903.57 1262.35L903.99 1262.34L904.42 1262.34L904.85 1262.35L905.3 1262.37L905.75 1262.4L906.2 1262.43L906.67 1262.47L907.13 1262.52L907.61 1262.58L908.09 1262.65L908.57 1262.72L909.06 1262.8L909.55 1262.89L910.04 1262.98L910.54 1263.08L911.04 1263.18L942.97 1269.03L944.62 1267.27L948.5 1263.49L952.54 1259.89L956.75 1256.46L961.1 1253.2L961.57 1252.89L956.02 1224.18L955.96 1223.72L955.9 1223.26L955.85 1222.8L955.79 1222.35L955.75 1221.91L955.7 1221.47L955.66 1221.03L955.62 1220.6L955.59 1220.18L955.57 1219.76L955.55 1219.35L955.54 1218.94L955.53 1218.55L955.54 1218.16L955.55 1217.77L955.57 1217.4L955.6 1217.03L955.63 1216.67L955.68 1216.32L955.74 1215.98L955.81 1215.65L955.88 1215.32L955.97 1215.01L956.08 1214.7L956.19 1214.41L956.32 1214.12L956.46 1213.85L956.61 1213.58L956.78 1213.33L956.96 1213.08L957.16 1212.85L957.37 1212.63L957.59 1212.43L957.84 1212.23L958.1 1212.05L958.37 1211.87L958.67 1211.72L958.98 1211.57L959.31 1211.44L959.66 1211.32L1011.63 1195.14L1011.98 1195.04L1012.34 1194.95L1012.7 1194.89L1013.06 1194.85L1013.42 1194.82L1013.77 1194.81L1014.13 1194.82L1014.49 1194.85L1014.84 1194.89L1015.2 1194.95L1015.55 1195.03L1015.9 1195.12L1016.26 1195.22L1016.61 1195.35L1016.96 1195.48L1017.31 1195.63L1017.66 1195.8L1018.01 1195.98L1018.36 1196.17L1018.7 1196.37L1019.05 1196.59L1019.39 1196.82L1019.73 1197.06L1020.07 1197.31L1020.41 1197.58L1020.75 1197.85L1021.09 1198.13L1021.42 1198.43L1021.76 1198.73L1022.09 1199.05L1022.42 1199.37L1022.75 1199.7L1023.08 1200.04L1023.4 1200.38L1023.73 1200.74L1024.05 1201.1L1024.37 1201.47L1024.68 1201.84L1025 1202.22L1025.31 1202.61L1045.84 1226.65L1046.45 1226.63L1052.44 1226.66L1058.46 1226.91L1064.52 1227.37L1070.59 1228.04L1073.3 1228.44L1091.71 1206.92L1091.98 1206.58L1092.27 1206.23L1092.55 1205.9L1092.84 1205.57L1093.13 1205.25L1093.42 1204.94L1093.71 1204.63L1094.01 1204.33L1094.31 1204.04L1094.61 1203.76L1094.92 1203.49L1095.22 1203.23L1095.53 1202.97L1095.85 1202.73L1096.16 1202.5L1096.48 1202.28L1096.8 1202.07L1097.12 1201.87L1097.44 1201.69L1097.77 1201.51L1098.1 1201.35L1098.43 1201.2L1098.77 1201.07L1099.1 1200.95L1099.44 1200.84L1099.78 1200.75L1100.12 1200.68L1100.47 1200.61L1100.82 1200.57L1101.16 1200.54L1101.52 1200.52L1101.87 1200.53L1102.23 1200.55L1102.58 1200.58L1102.94 1200.64L1103.31 1200.71L1103.67 1200.8L1104.04 1200.92L1104.4 1201.04L1104.77 1201.19L1158.57 1224.25L1158.94 1224.42L1159.28 1224.59ZM1088.23 1296.33L1084.94 1295.25L1081.65 1294.29L1078.36 1293.45L1075.07 1292.73L1071.78 1292.13L1068.49 1291.65L1065.22 1291.29L1061.96 1291.04L1058.72 1290.91L1055.5 1290.89L1052.3 1290.98L1049.13 1291.19L1045.99 1291.51L1042.88 1291.93L1039.81 1292.47L1036.78 1293.11L1033.8 1293.86L1030.87 1294.71L1027.99 1295.67L1025.16 1296.73L1022.39 1297.89L1019.68 1299.16L1017.04 1300.52L1014.46 1301.98L1011.96 1303.54L1009.54 1305.2L1007.19 1306.95L1004.93 1308.8L1002.75 1310.74L1000.66 1312.77L998.66 1314.9L996.76 1317.11L994.97 1319.42L993.27 1321.81L991.68 1324.29L990.2 1326.85L988.83 1329.5L987.58 1332.24L986.47 1335.03L985.49 1337.84L984.65 1340.68L983.95 1343.54L983.39 1346.42L982.96 1349.31L982.67 1352.22L982.51 1355.13L982.48 1358.04L982.57 1360.96L982.8 1363.87L983.15 1366.78L983.62 1369.68L984.21 1372.57L984.93 1375.44L985.76 1378.29L986.72 1381.13L987.78 1383.93L988.97 1386.71L990.26 1389.46L991.67 1392.17L993.18 1394.85L994.8 1397.48L996.53 1400.07L998.37 1402.62L1000.3 1405.11L1002.34 1407.55L1004.48 1409.93L1006.71 1412.25L1009.05 1414.51L1011.47 1416.7L1013.99 1418.82L1016.61 1420.86L1019.31 1422.83L1022.1 1424.72L1024.98 1426.53L1027.94 1428.25L1030.99 1429.88L1034.12 1431.42L1037.33 1432.86L1040.59 1434.19L1043.86 1435.4L1047.14 1436.48L1050.43 1437.44L1053.73 1438.28L1057.02 1438.99L1060.31 1439.59L1063.59 1440.07L1066.87 1440.44L1070.13 1440.68L1073.37 1440.82L1076.59 1440.83L1079.79 1440.74L1082.96 1440.53L1086.1 1440.22L1089.21 1439.79L1092.27 1439.26L1095.3 1438.62L1098.28 1437.87L1101.22 1437.01L1104.1 1436.06L1106.93 1434.99L1109.7 1433.83L1112.41 1432.57L1115.05 1431.2L1117.62 1429.74L1120.12 1428.18L1122.55 1426.52L1124.9 1424.77L1127.16 1422.92L1129.34 1420.98L1131.43 1418.95L1133.42 1416.83L1135.32 1414.61L1137.12 1412.31L1138.82 1409.91L1140.41 1407.44L1141.89 1404.87L1143.25 1402.22L1144.5 1399.49L1145.62 1396.7L1146.6 1393.88L1147.43 1391.04L1148.13 1388.18L1148.69 1385.3L1149.12 1382.41L1149.42 1379.51L1149.58 1376.6L1149.61 1373.68L1149.51 1370.77L1149.29 1367.85L1148.94 1364.94L1148.47 1362.04L1147.87 1359.16L1147.16 1356.28L1146.32 1353.43L1145.37 1350.6L1144.3 1347.79L1143.12 1345.01L1141.83 1342.26L1140.42 1339.55L1138.9 1336.87L1137.28 1334.24L1135.55 1331.65L1133.72 1329.11L1131.78 1326.61L1129.75 1324.18L1127.61 1321.79L1125.37 1319.47L1123.04 1317.22L1120.61 1315.03L1118.09 1312.91L1115.48 1310.86L1112.78 1308.89L1109.99 1307L1107.11 1305.19L1104.14 1303.47L1101.1 1301.84L1097.97 1300.31L1094.76 1298.86L1091.5 1297.53L1088.23 1296.33Z" id="b3qrTsa9Yi"></path></defs><g><g><g><use xlink:href="#g26xNZRScj" opacity="1" fill="#d03f41" fill-opacity="1"></use></g><g><use xlink:href="#a1uTaYHjq0" opacity="1" fill="#d03f41" fill-opacity="1"></use></g><g><use xlink:href="#a7y94XaF4" opacity="1" fill="#d03f41" fill-opacity="1"></use></g><g><use xlink:href="#dyJHl3hah" opacity="1" fill="#d03f41" fill-opacity="1"></use></g><g><use xlink:href="#b2uzo7YE9x" opacity="1" fill="#d03f41" fill-opacity="1"></use></g><g><use xlink:href="#b3qrTsa9Yi" opacity="1" fill="#d03f41" fill-opacity="1"></use></g></g></g></svg>