<svg xmlns="http://www.w3.org/2000/svg" width="1440" height="900"><path d="M1009,472L1048,664L1313,503Z" fill="#ae2e18" stroke="#ae2e18" stroke-width="1.51"/><path d="M1048,664L1206,732L1313,503Z" fill="#aa2b16" stroke="#aa2b16" stroke-width="1.51"/><path d="M1313,503L1016,219L1009,472Z" fill="#b4311a" stroke="#b4311a" stroke-width="1.51"/><path d="M1542,753L1492,450L1313,503Z" fill="#a52815" stroke="#a52815" stroke-width="1.51"/><path d="M1232,115L1016,219L1313,503Z" fill="#b6331b" stroke="#b6331b" stroke-width="1.51"/><path d="M1048,664L1035,944L1206,732Z" fill="#a72915" stroke="#a72915" stroke-width="1.51"/><path d="M1206,732L1542,753L1313,503Z" fill="#a42714" stroke="#a42714" stroke-width="1.51"/><path d="M668,709L1035,944L1048,664Z" fill="#ac2c17" stroke="#ac2c17" stroke-width="1.51"/><path d="M1492,450L1232,115L1313,503Z" fill="#af2e18" stroke="#af2e18" stroke-width="1.51"/><path d="M1035,944L1307,953L1206,732Z" fill="#a12613" stroke="#a12613" stroke-width="1.51"/><path d="M1307,953L1542,753L1206,732Z" fill="#9f2412" stroke="#9f2412" stroke-width="1.51"/><path d="M1009,472L722,453L1048,664Z" fill="#b4311b" stroke="#b4311b" stroke-width="1.51"/><path d="M1016,219L722,453L1009,472Z" fill="#b9351d" stroke="#b9351d" stroke-width="1.51"/><path d="M722,453L668,709L1048,664Z" fill="#b4321b" stroke="#b4321b" stroke-width="1.51"/><path d="M1016,219L741,160L722,453Z" fill="#bf391f" stroke="#bf391f" stroke-width="1.51"/><path d="M722,453L395,508L668,709Z" fill="#bc371d" stroke="#bc371d" stroke-width="1.51"/><path d="M985,-151L741,160L1016,219Z" fill="#c43c21" stroke="#c43c21" stroke-width="1.51"/><path d="M1492,450L1594,134L1232,115Z" fill="#b12f19" stroke="#b12f19" stroke-width="1.51"/><path d="M1875,225L1594,134L1492,450Z" fill="#aa2b17" stroke="#aa2b17" stroke-width="1.51"/><path d="M1232,115L985,-151L1016,219Z" fill="#c0391f" stroke="#c0391f" stroke-width="1.51"/><path d="M1594,134L1261,-48L1232,115Z" fill="#b8341c" stroke="#b8341c" stroke-width="1.51"/><path d="M1216,1220L1486,1060L1307,953Z" fill="#971e0f" stroke="#971e0f" stroke-width="1.51"/><path d="M1307,953L1486,1060L1542,753Z" fill="#992010" stroke="#992010" stroke-width="1.51"/><path d="M1035,944L1216,1220L1307,953Z" fill="#9c2211" stroke="#9c2211" stroke-width="1.51"/><path d="M668,709L722,979L1035,944Z" fill="#ab2c17" stroke="#ab2c17" stroke-width="1.51"/><path d="M990,1285L1216,1220L1035,944Z" fill="#9b2011" stroke="#9b2011" stroke-width="1.51"/><path d="M1261,-48L985,-151L1232,115Z" fill="#c13a20" stroke="#c13a20" stroke-width="1.51"/><path d="M1771,1001L1836,758L1542,753Z" fill="#951d0f" stroke="#951d0f" stroke-width="1.51"/><path d="M1542,753L1870,474L1492,450Z" fill="#a12513" stroke="#a12513" stroke-width="1.51"/><path d="M1836,758L1870,474L1542,753Z" fill="#9a2011" stroke="#9a2011" stroke-width="1.51"/><path d="M985,-151L738,-82L741,160Z" fill="#ca4023" stroke="#ca4023" stroke-width="1.51"/><path d="M412,224L395,508L722,453Z" fill="#c33c20" stroke="#c33c20" stroke-width="1.51"/><path d="M722,979L990,1285L1035,944Z" fill="#a22614" stroke="#a22614" stroke-width="1.51"/><path d="M412,224L722,453L741,160Z" fill="#c43c21" stroke="#c43c21" stroke-width="1.51"/><path d="M668,709L488,980L722,979Z" fill="#b02f19" stroke="#b02f19" stroke-width="1.51"/><path d="M1516,1259L1771,1001L1486,1060Z" fill="#8f190d" stroke="#8f190d" stroke-width="1.51"/><path d="M1486,1060L1771,1001L1542,753Z" fill="#951c0e" stroke="#951c0e" stroke-width="1.51"/><path d="M395,508L404,704L668,709Z" fill="#bb371e" stroke="#bb371e" stroke-width="1.51"/><path d="M722,979L755,1256L990,1285Z" fill="#a12513" stroke="#a12513" stroke-width="1.51"/><path d="M1594,134L1593,-156L1261,-48Z" fill="#b8341c" stroke="#b8341c" stroke-width="1.51"/><path d="M1870,474L1875,225L1492,450Z" fill="#a42714" stroke="#a42714" stroke-width="1.51"/><path d="M404,704L488,980L668,709Z" fill="#b6331b" stroke="#b6331b" stroke-width="1.51"/><path d="M1236,1541L1516,1259L1216,1220Z" fill="#8f180c" stroke="#8f180c" stroke-width="1.51"/><path d="M1216,1220L1516,1259L1486,1060Z" fill="#921a0e" stroke="#921a0e" stroke-width="1.51"/><path d="M489,-138L412,224L741,160Z" fill="#cd4224" stroke="#cd4224" stroke-width="1.51"/><path d="M488,980L755,1256L722,979Z" fill="#a92a16" stroke="#a92a16" stroke-width="1.51"/><path d="M1798,-65L1593,-156L1594,134Z" fill="#b3311b" stroke="#b3311b" stroke-width="1.51"/><path d="M1231,-422L1039,-417L985,-151Z" fill="#cd4224" stroke="#cd4224" stroke-width="1.51"/><path d="M1875,225L1798,-65L1594,134Z" fill="#ad2d18" stroke="#ad2d18" stroke-width="1.51"/><path d="M1870,474L2087,434L1875,225Z" fill="#9e2312" stroke="#9e2312" stroke-width="1.51"/><path d="M1875,225L2134,145L1798,-65Z" fill="#a82a16" stroke="#a82a16" stroke-width="1.51"/><path d="M2143,678L2087,434L1870,474Z" fill="#9a1f11" stroke="#9a1f11" stroke-width="1.51"/><path d="M2143,678L1870,474L1836,758Z" fill="#961d0f" stroke="#961d0f" stroke-width="1.51"/><path d="M488,980L505,1334L755,1256Z" fill="#a72916" stroke="#a72916" stroke-width="1.51"/><path d="M404,704L227,711L488,980Z" fill="#ba351d" stroke="#ba351d" stroke-width="1.51"/><path d="M395,508L227,711L404,704Z" fill="#bf391f" stroke="#bf391f" stroke-width="1.51"/><path d="M153,457L227,711L395,508Z" fill="#c53d21" stroke="#c53d21" stroke-width="1.51"/><path d="M738,-82L489,-138L741,160Z" fill="#ce4224" stroke="#ce4224" stroke-width="1.51"/><path d="M412,224L153,457L395,508Z" fill="#c83f22" stroke="#c83f22" stroke-width="1.51"/><path d="M727,-343L489,-138L738,-82Z" fill="#d44627" stroke="#d44627" stroke-width="1.51"/><path d="M1231,-422L1261,-48L1556,-353Z" fill="#c43c21" stroke="#c43c21" stroke-width="1.51"/><path d="M1231,-422L985,-151L1261,-48Z" fill="#c73e22" stroke="#c73e22" stroke-width="1.51"/><path d="M985,-151L727,-343L738,-82Z" fill="#d04325" stroke="#d04325" stroke-width="1.51"/><path d="M1556,-353L1261,-48L1593,-156Z" fill="#be381f" stroke="#be381f" stroke-width="1.51"/><path d="M1754,-396L1556,-353L1593,-156Z" fill="#bd381e" stroke="#bd381e" stroke-width="1.51"/><path d="M1039,-417L727,-343L985,-151Z" fill="#d14426" stroke="#d14426" stroke-width="1.51"/><path d="M2106,962L1836,758L1771,1001Z" fill="#8e170c" stroke="#8e170c" stroke-width="1.51"/><path d="M2106,962L2143,678L1836,758Z" fill="#91190d" stroke="#91190d" stroke-width="1.51"/><path d="M968,1601L1236,1541L990,1285Z" fill="#931b0e" stroke="#931b0e" stroke-width="1.51"/><path d="M990,1285L1236,1541L1216,1220Z" fill="#931b0e" stroke="#931b0e" stroke-width="1.51"/><path d="M1516,1259L1853,1277L1771,1001Z" fill="#8a140b" stroke="#8a140b" stroke-width="1.51"/><path d="M219,153L153,457L412,224Z" fill="#ce4224" stroke="#ce4224" stroke-width="1.51"/><path d="M1848,1493L1853,1277L1516,1259Z" fill="#840e08" stroke="#840e08" stroke-width="1.51"/><path d="M489,-138L219,153L412,224Z" fill="#d24526" stroke="#d24526" stroke-width="1.51"/><path d="M755,1256L730,1488L990,1285Z" fill="#9c2111" stroke="#9c2111" stroke-width="1.51"/><path d="M198,1307L505,1334L488,980Z" fill="#ab2c17" stroke="#ab2c17" stroke-width="1.51"/><path d="M505,1334L730,1488L755,1256Z" fill="#9f2313" stroke="#9f2313" stroke-width="1.51"/><path d="M2051,1229L2106,962L1771,1001Z" fill="#881209" stroke="#881209" stroke-width="1.51"/><path d="M1798,-65L1754,-396L1593,-156Z" fill="#b8351d" stroke="#b8351d" stroke-width="1.51"/><path d="M2087,434L2134,145L1875,225Z" fill="#a22614" stroke="#a22614" stroke-width="1.51"/><path d="M2143,678L2134,145L2087,434Z" fill="#9d2212" stroke="#9d2212" stroke-width="1.51"/><path d="M730,1488L968,1601L990,1285Z" fill="#981e10" stroke="#981e10" stroke-width="1.51"/><path d="M227,711L152,988L488,980Z" fill="#b8351c" stroke="#b8351c" stroke-width="1.51"/><path d="M-107,672L152,988L227,711Z" fill="#c13a20" stroke="#c13a20" stroke-width="1.51"/><path d="M2055,-154L1754,-396L1798,-65Z" fill="#b4321a" stroke="#b4321a" stroke-width="1.51"/><path d="M1556,-353L1754,-396L1231,-422Z" fill="#c43c21" stroke="#c43c21" stroke-width="1.51"/><path d="M1236,1541L1583,1585L1516,1259Z" fill="#89130a" stroke="#89130a" stroke-width="1.51"/><path d="M968,1601L1583,1585L1236,1541Z" fill="#8e170c" stroke="#8e170c" stroke-width="1.51"/><path d="M1853,1277L2051,1229L1771,1001Z" fill="#861009" stroke="#861009" stroke-width="1.51"/><path d="M1848,1493L2051,1229L1853,1277Z" fill="#800b06" stroke="#800b06" stroke-width="1.51"/><path d="M2134,145L2055,-154L1798,-65Z" fill="#ac2c18" stroke="#ac2c18" stroke-width="1.51"/><path d="M489,-138L118,-35L219,153Z" fill="#d84828" stroke="#d84828" stroke-width="1.51"/><path d="M727,-343L453,-384L489,-138Z" fill="#da4929" stroke="#da4929" stroke-width="1.51"/><path d="M1039,-417L453,-384L727,-343Z" fill="#d84828" stroke="#d84828" stroke-width="1.51"/><path d="M1583,1585L1848,1493L1516,1259Z" fill="#840f08" stroke="#840f08" stroke-width="1.51"/><path d="M153,457L-107,672L227,711Z" fill="#c73e22" stroke="#c73e22" stroke-width="1.51"/><path d="M-53,120L-69,442L153,457Z" fill="#d34527" stroke="#d34527" stroke-width="1.51"/><path d="M179,-413L118,-35L489,-138Z" fill="#df4c2b" stroke="#df4c2b" stroke-width="1.51"/><path d="M198,1307L493,1553L505,1334Z" fill="#a52814" stroke="#a52814" stroke-width="1.51"/><path d="M505,1334L493,1553L730,1488Z" fill="#a02413" stroke="#a02413" stroke-width="1.51"/><path d="M730,1488L493,1553L968,1601Z" fill="#9c2112" stroke="#9c2112" stroke-width="1.51"/><path d="M152,988L198,1307L488,980Z" fill="#b2301a" stroke="#b2301a" stroke-width="1.51"/><path d="M-53,120L153,457L219,153Z" fill="#d34627" stroke="#d34627" stroke-width="1.51"/><path d="M152,988L-129,1208L198,1307Z" fill="#b5321b" stroke="#b5321b" stroke-width="1.51"/><path d="M-69,442L-107,672L153,457Z" fill="#cd4224" stroke="#cd4224" stroke-width="1.51"/><path d="M-69,442L-381,467L-107,672Z" fill="#d24526" stroke="#d24526" stroke-width="1.51"/><path d="M118,-35L-53,120L219,153Z" fill="#da4929" stroke="#da4929" stroke-width="1.51"/><path d="M-81,-40L-53,120L118,-35Z" fill="#de4d2b" stroke="#de4d2b" stroke-width="1.51"/><path d="M-107,672L-55,996L152,988Z" fill="#c13a20" stroke="#c13a20" stroke-width="1.51"/><path d="M453,-384L179,-413L489,-138Z" fill="#e04d2b" stroke="#e04d2b" stroke-width="1.51"/><path d="M1039,-417L179,-413L453,-384Z" fill="#de4c2b" stroke="#de4c2b" stroke-width="1.51"/><path d="M-361,-430L179,-413L1039,-417Z" fill="#e6512e" stroke="#e6512e" stroke-width="1.51"/><path d="M-357,166L-381,467L-69,442Z" fill="#da4a29" stroke="#da4a29" stroke-width="1.51"/><path d="M179,-413L-81,-40L118,-35Z" fill="#e34f2c" stroke="#e34f2c" stroke-width="1.51"/><path d="M2134,145L2149,-433L2055,-154Z" fill="#b02f19" stroke="#b02f19" stroke-width="1.51"/><path d="M2055,-154L2149,-433L1754,-396Z" fill="#b6331b" stroke="#b6331b" stroke-width="1.51"/><path d="M1754,-396L2149,-433L1231,-422Z" fill="#c0391f" stroke="#c0391f" stroke-width="1.51"/><path d="M1231,-422L-361,-430L1039,-417Z" fill="#dd4b2a" stroke="#dd4b2a" stroke-width="1.51"/><path d="M2143,678L2149,-433L2134,145Z" fill="#a72915" stroke="#a72915" stroke-width="1.51"/><path d="M1848,1493L2132,1573L2051,1229Z" fill="#7d0704" stroke="#7d0704" stroke-width="1.51"/><path d="M2051,1229L2132,1573L2106,962Z" fill="#820c07" stroke="#820c07" stroke-width="1.51"/><path d="M2106,962L2132,1573L2143,678Z" fill="#881109" stroke="#881109" stroke-width="1.51"/><path d="M1583,1585L2132,1573L1848,1493Z" fill="#7f0906" stroke="#7f0906" stroke-width="1.51"/><path d="M968,1601L2132,1573L1583,1585Z" fill="#871109" stroke="#871109" stroke-width="1.51"/><path d="M-139,1596L195,1601L198,1307Z" fill="#ac2d18" stroke="#ac2d18" stroke-width="1.51"/><path d="M198,1307L195,1601L493,1553Z" fill="#a72916" stroke="#a72916" stroke-width="1.51"/><path d="M493,1553L195,1601L968,1601Z" fill="#a02513" stroke="#a02513" stroke-width="1.51"/><path d="M-55,996L-129,1208L152,988Z" fill="#ba361d" stroke="#ba361d" stroke-width="1.51"/><path d="M-407,1044L-129,1208L-55,996Z" fill="#bf391f" stroke="#bf391f" stroke-width="1.51"/><path d="M-407,1044L-55,996L-107,672Z" fill="#c53c21" stroke="#c53c21" stroke-width="1.51"/><path d="M-357,166L-69,442L-53,120Z" fill="#db4a29" stroke="#db4a29" stroke-width="1.51"/><path d="M-81,-40L-357,166L-53,120Z" fill="#e04e2c" stroke="#e04e2c" stroke-width="1.51"/><path d="M-366,-107L-357,166L-81,-40Z" fill="#e6512e" stroke="#e6512e" stroke-width="1.51"/><path d="M-357,166L-430,675L-381,467Z" fill="#da4a29" stroke="#da4a29" stroke-width="1.51"/><path d="M-381,467L-430,675L-107,672Z" fill="#d34526" stroke="#d34526" stroke-width="1.51"/><path d="M-361,-430L-144,-410L179,-413Z" fill="#f15832" stroke="#f15832" stroke-width="1.51"/><path d="M179,-413L-144,-410L-81,-40Z" fill="#e9532f" stroke="#e9532f" stroke-width="1.51"/><path d="M-430,675L-407,1044L-107,672Z" fill="#cc4124" stroke="#cc4124" stroke-width="1.51"/><path d="M-129,1208L-139,1596L198,1307Z" fill="#b02f19" stroke="#b02f19" stroke-width="1.51"/><path d="M-144,-410L-366,-107L-81,-40Z" fill="#eb5430" stroke="#eb5430" stroke-width="1.51"/><path d="M-357,166L-366,-107L-430,675Z" fill="#e14e2c" stroke="#e14e2c" stroke-width="1.51"/><path d="M-420,1312L-139,1596L-129,1208Z" fill="#b6331b" stroke="#b6331b" stroke-width="1.51"/><path d="M-407,1044L-420,1312L-129,1208Z" fill="#be381f" stroke="#be381f" stroke-width="1.51"/><path d="M-430,675L-420,1312L-407,1044Z" fill="#c73e22" stroke="#c73e22" stroke-width="1.51"/><path d="M-144,-410L-361,-430L-366,-107Z" fill="#f25833" stroke="#f25833" stroke-width="1.51"/><path d="M-366,-107L-361,-430L-430,675Z" fill="#e8532f" stroke="#e8532f" stroke-width="1.51"/><path d="M2149,-433L-361,-430L1231,-422Z" fill="#d24527" stroke="#d24527" stroke-width="1.51"/><path d="M-430,675L-421,1535L-420,1312Z" fill="#c23a20" stroke="#c23a20" stroke-width="1.51"/><path d="M-420,1312L-421,1535L-139,1596Z" fill="#b7341c" stroke="#b7341c" stroke-width="1.51"/></svg>